<?xml version="1.0" standalone="no"?>
<!DOCTYPE svg PUBLIC "-//W3C//DTD SVG 20010904//EN"
 "http://www.w3.org/TR/2001/REC-SVG-20010904/DTD/svg10.dtd">
<svg version="1.0" xmlns="http://www.w3.org/2000/svg"
 width="260.000000pt" height="260.000000pt" viewBox="0 0 260.000000 260.000000"
 preserveAspectRatio="xMidYMid meet">
<metadata>
Created by potrace 1.11, written by Peter Selinger 2001-2013
</metadata>
<g transform="translate(0.000000,260.000000) scale(0.100000,-0.100000)"
fill="#000000" stroke="none">
<path d="M1294 2499 c-3 -5 -12 -9 -20 -9 -14 0 -20 -5 -84 -61 -19 -17 -48
-38 -65 -47 -31 -17 -135 -25 -135 -10 0 4 -18 11 -40 14 -22 4 -40 10 -40 13
0 4 -26 7 -58 7 -51 -1 -61 -4 -89 -33 -17 -18 -29 -33 -27 -33 3 0 -2 -10
-10 -22 -9 -12 -16 -30 -16 -40 0 -10 -4 -18 -9 -18 -5 0 -13 -10 -17 -22 -13
-41 -48 -85 -66 -82 -10 1 -18 -1 -18 -6 0 -4 -12 -7 -27 -7 -15 0 -29 -5 -30
-10 -2 -5 -24 -8 -48 -7 -25 1 -48 -2 -51 -7 -3 -5 -13 -9 -22 -9 -9 0 -30
-11 -47 -24 -29 -24 -30 -27 -36 -138 -4 -62 -8 -121 -11 -130 -6 -26 -64 -85
-101 -104 -17 -9 -36 -23 -40 -30 -4 -8 -15 -14 -22 -14 -8 0 -15 -6 -15 -13
0 -7 -9 -20 -20 -30 -31 -27 -25 -77 20 -168 22 -44 40 -91 40 -104 0 -13 6
-26 13 -28 9 -4 9 -6 0 -6 -7 -1 -13 -8 -13 -16 0 -18 -48 -117 -61 -125 -28
-18 -47 -145 -23 -154 8 -3 14 -12 14 -21 0 -8 5 -15 10 -15 6 0 23 -12 38
-28 15 -15 39 -33 54 -41 14 -7 32 -24 39 -37 7 -13 16 -24 21 -24 5 0 7 -4 3
-9 -3 -5 -1 -12 5 -16 12 -7 14 -155 2 -155 -10 0 -9 -57 1 -66 4 -4 7 -17 7
-30 0 -15 12 -30 37 -45 39 -24 50 -28 93 -34 14 -2 36 -7 50 -13 14 -5 31 -7
38 -5 6 3 12 0 12 -5 0 -6 13 -13 29 -17 19 -4 28 -11 25 -19 -3 -8 2 -16 10
-19 9 -4 16 -13 16 -22 0 -8 5 -15 10 -15 6 0 9 -3 8 -7 0 -5 2 -16 5 -25 4
-10 10 -26 14 -35 3 -10 5 -21 5 -25 -1 -5 3 -8 9 -8 5 0 7 -5 4 -11 -4 -5 11
-27 32 -47 34 -32 46 -38 86 -38 26 0 47 3 47 7 0 4 20 10 45 13 25 4 45 11
45 15 0 6 76 7 90 1 3 -1 8 -2 13 -1 4 0 7 -3 7 -9 0 -5 5 -10 11 -10 7 0 40
-28 74 -62 33 -35 68 -65 76 -67 37 -10 70 -13 86 -6 10 5 23 9 29 10 12 3 44
27 79 61 43 40 89 60 143 61 28 1 52 -2 52 -7 0 -5 9 -7 20 -5 11 2 20 0 20
-5 0 -9 65 -23 118 -24 46 -2 81 33 123 119 19 39 36 72 39 75 3 3 13 17 23
32 10 16 21 27 25 26 4 -1 27 5 52 12 25 8 61 14 80 15 19 1 49 7 65 14 17 6
35 13 42 16 29 10 46 70 48 165 1 52 3 95 4 95 2 0 4 8 6 19 5 24 72 94 99
102 11 4 43 31 72 62 59 61 63 87 28 153 -10 18 -19 36 -19 39 -1 3 -10 23
-22 45 -19 37 -28 76 -23 100 1 6 3 15 4 20 5 28 64 135 81 147 6 4 6 8 1 8
-5 0 -4 6 3 13 12 15 12 87 -1 87 -4 0 -8 3 -7 8 2 16 -14 53 -23 50 -5 -2
-30 16 -55 39 -25 24 -51 43 -57 43 -23 0 -54 93 -54 158 0 34 4 62 8 62 10 0
7 60 -3 78 -5 6 -6 15 -4 20 2 4 -9 20 -25 35 -15 15 -28 25 -28 21 0 -3 -7
-1 -15 6 -8 6 -19 9 -25 5 -5 -3 -10 -1 -10 4 0 6 -15 11 -34 11 -19 0 -38 5
-41 10 -4 6 -12 10 -18 9 -20 -4 -67 13 -67 23 0 5 -4 6 -10 3 -5 -3 -10 1
-10 9 0 9 -4 16 -9 16 -5 0 -15 16 -22 35 -7 19 -17 35 -22 35 -4 0 -5 9 -2
20 3 11 2 20 -3 20 -9 0 -23 31 -26 55 -1 14 -49 61 -58 57 -4 -1 -8 2 -8 6 0
10 -80 13 -95 3 -5 -3 -17 -6 -25 -7 -14 -1 -30 -6 -77 -24 -26 -11 -70 -4
-100 16 -13 8 -23 12 -23 9 0 -3 -28 24 -61 59 -60 62 -66 66 -146 82 -7 1
-15 -2 -19 -7z m86 -379 c3 -2 16 -4 30 -5 27 -2 75 -13 100 -22 8 -4 21 -5
28 -4 6 1 12 -2 12 -7 0 -5 13 -12 29 -15 40 -8 111 -40 111 -50 0 -4 4 -6 9
-3 5 4 23 -5 39 -19 16 -14 34 -25 39 -25 5 0 15 -9 23 -20 8 -11 19 -20 24
-20 10 0 124 -117 163 -167 13 -15 30 -43 38 -60 9 -18 21 -33 27 -33 5 0 8
-7 4 -15 -3 -8 -1 -15 4 -15 6 0 10 -8 10 -18 0 -10 6 -26 14 -37 7 -11 12
-28 10 -37 -1 -10 1 -18 6 -18 6 0 12 -18 25 -75 1 -5 3 -12 5 -15 11 -20 23
-247 15 -268 -4 -9 -9 -33 -10 -52 -3 -37 -4 -40 -25 -110 -8 -25 -14 -47 -15
-50 -1 -3 -6 -16 -12 -30 -6 -14 -17 -40 -23 -57 -7 -18 -16 -33 -20 -33 -4 0
-10 -10 -14 -23 -3 -12 -17 -34 -31 -49 -14 -15 -25 -31 -25 -35 0 -5 -34 -42
-75 -83 -41 -41 -75 -71 -75 -66 0 5 -9 -3 -21 -18 -11 -14 -26 -26 -34 -26
-7 0 -16 -7 -19 -16 -3 -8 -10 -12 -16 -9 -5 3 -10 1 -10 -4 0 -6 -7 -11 -16
-11 -9 0 -28 -8 -42 -19 -15 -10 -40 -22 -57 -26 -37 -10 -34 -9 -68 -23 -16
-7 -39 -12 -53 -12 -13 0 -24 -4 -24 -9 0 -11 -29 -13 -170 -13 -87 0 -171 5
-177 12 -4 3 -10 5 -55 14 -21 5 -38 12 -38 17 0 5 -3 8 -7 7 -14 -3 -68 15
-113 38 -25 12 -49 22 -54 22 -5 0 -13 7 -18 16 -5 9 -15 16 -23 16 -8 0 -19
9 -25 20 -6 11 -16 20 -23 20 -7 0 -42 30 -78 68 -64 67 -146 172 -134 172 3
0 -3 10 -15 22 -17 19 -24 32 -19 41 1 1 -8 21 -20 45 -12 23 -19 42 -16 42 4
0 3 6 -2 13 -4 6 -9 17 -10 22 -1 6 -7 28 -13 50 -21 78 -35 268 -22 290 4 6
7 24 7 42 0 18 4 35 8 39 4 4 7 20 7 35 0 15 4 30 10 34 5 3 7 12 3 20 -3 8 0
15 6 15 6 0 10 3 9 8 -3 14 14 62 23 62 4 0 6 9 4 20 -2 11 1 20 7 20 5 0 8 6
5 13 -3 7 4 19 14 26 11 6 17 16 14 21 -3 6 -1 10 4 10 6 0 11 5 11 11 0 23
168 209 189 209 6 0 16 9 23 20 7 11 17 20 21 20 5 0 24 12 42 26 19 14 36 25
39 25 3 0 29 11 58 24 29 14 61 25 71 25 9 0 17 4 17 9 0 6 9 8 20 6 11 -2 20
0 20 4 0 9 43 19 102 24 21 2 40 5 43 8 5 6 166 5 175 -1z"/>
<path d="M1115 1719 c-3 -3 -21 -9 -42 -12 -42 -7 -78 -15 -78 -17 0 -1 -7 -3
-15 -5 -8 -2 -28 -9 -45 -16 -16 -7 -34 -14 -40 -14 -20 -4 -85 -35 -86 -43
-1 -4 -4 -18 -7 -32 -9 -47 -13 -432 -4 -443 5 -7 7 -24 6 -39 -2 -16 1 -28 6
-28 4 0 7 -11 5 -25 -1 -14 1 -25 5 -25 4 0 10 -12 12 -27 7 -39 12 -57 18
-63 9 -9 34 -65 32 -72 -1 -5 3 -8 8 -8 6 0 10 -6 10 -14 0 -8 11 -28 25 -44
l25 -30 40 20 c22 11 40 24 40 29 0 5 6 9 13 9 7 0 46 33 87 73 101 100 120
121 120 135 0 7 7 12 15 12 8 0 15 -9 15 -20 0 -12 7 -35 16 -51 8 -17 13 -33
10 -36 -3 -3 1 -12 9 -20 8 -8 15 -23 15 -34 0 -10 5 -19 10 -19 6 0 10 -6 10
-14 0 -7 7 -19 15 -26 8 -7 13 -16 10 -20 -13 -21 55 -19 83 3 6 5 12 7 12 3
0 -4 19 4 43 16 23 12 45 22 49 23 4 0 16 10 28 23 11 12 26 22 33 22 7 1 28
21 47 46 19 26 41 52 48 59 6 8 12 18 12 23 0 5 7 15 15 22 8 7 12 16 9 21 -3
5 -1 9 5 9 9 0 43 54 40 62 0 2 5 17 12 33 7 17 14 35 14 40 1 6 7 23 13 38 7
16 12 41 12 56 0 15 3 31 7 35 4 4 8 67 8 139 1 127 -6 161 -32 156 -4 -1 -21
4 -38 11 -16 7 -38 12 -47 12 -10 0 -18 3 -18 9 0 5 -13 9 -30 9 -16 0 -30 5
-30 11 0 5 -4 7 -10 4 -5 -3 -16 -3 -22 2 -15 9 -34 14 -63 16 -18 2 -20 -5
-22 -65 -1 -38 2 -68 6 -68 5 0 7 -24 4 -52 -2 -29 -5 -80 -6 -113 -1 -33 -5
-62 -9 -65 -3 -3 -9 -21 -11 -40 -3 -19 -6 -36 -7 -37 -3 -3 -4 -7 -14 -48 -4
-16 -10 -37 -13 -45 -4 -8 -7 -17 -7 -20 -1 -3 -5 -11 -9 -17 -5 -7 -5 -17 -2
-23 3 -5 1 -10 -4 -10 -6 0 -11 7 -11 15 0 8 -4 15 -8 15 -5 0 -8 21 -6 48 1
26 -1 52 -5 57 -3 6 -6 88 -7 182 0 95 -3 176 -7 179 -4 4 -13 2 -21 -5 -8 -6
-18 -11 -22 -10 -5 1 -18 -1 -29 -5 -11 -4 -33 -13 -50 -19 -16 -7 -33 -11
-37 -9 -5 1 -8 -3 -8 -8 0 -5 -6 -10 -14 -10 -25 0 -46 -42 -46 -92 0 -27 4
-48 8 -48 12 0 7 -121 -7 -154 -6 -16 -22 -39 -34 -52 -12 -13 -20 -24 -17
-26 6 -4 -33 -48 -40 -43 -12 8 6 305 19 305 4 0 8 14 9 30 1 17 3 44 4 60 1
17 6 30 10 30 4 0 8 14 8 30 0 17 5 30 11 30 5 0 7 5 4 10 -3 6 -3 16 2 23 9
15 14 35 16 66 2 23 -2 25 -41 26 -24 0 -45 -2 -47 -6z"/>
</g>
</svg>
